<svg xmlns="http://www.w3.org/2000/svg" version="1.2" baseProfile="tiny-ps" viewBox="0 0 150 150" preserveAspectRatio="xMidYMid meet" xml:space="preserve"><title>WOORA</title>
  
  
  <path fill="#30547D" d="M63.5,100.8c-4.3,0-7.9-.8-10.9-2.4-3-1.6-5.6-3.7-7.6-6.4-2.1-2.7-3.7-5.7-5-9.2-1.2-3.5-2.2-7.1-2.9-10.8s-1.1-7.5-1.4-11.2c-.3-3.7-.5-7.2-.6-10.4h7.3c.1,1.9.2,4,.3,6.3,0,2.3.2,4.7.4,7.2.2,2.5.5,5,.9,7.4.4,2.5.9,4.9,1.7,7.2s1.7,4.5,2.9,6.4c1.2,2,2.7,3.7,4.4,5.2,2.7,2.3,6.2,3.5,10.3,3.5s3.5-.2,5.3-.5c1.8-.3,3.4-.9,5-1.7,0,0-.1-.2-.1-.3l-.4-.5c0,0,0-.2-.1-.3-1.9-2.6-3.4-5.6-4.5-8.8s-1.8-6.4-2.1-9.6-.3-6.3,0-9.2c.4-2.9,1-5.4,2-7.6.6-1.3,1.3-2.3,2-3.1s1.5-1.4,2.2-1.8c.7-.4,1.5-.7,2.2-.9.7-.2,1.3-.3,1.8-.3,1.7-.1,3.3.5,4.9,1.7,1.6,1.2,3,3.1,4.2,5.5,1,2,1.8,4.2,2.5,6.6.7,2.4,1.1,4.9,1.3,7.5.1,1.9.2,3.7,0,5.6,0,1.9-.3,3.7-.8,5.5-.4,1.8-1,3.6-1.7,5.3s-1.7,3.3-2.8,4.7c1.5.9,3.2,1.5,5,1.8s3.7.3,5.7,0c2.7-.3,4.9-1,6.7-2,1.8-1,3.2-2.4,4.2-4.2.9-1.6,1.4-3.5,1.6-5.6s.2-4.4,0-6.8-.6-4.8-1.2-7.2-1.2-4.8-1.8-7c-.7-2.2-1.4-4.2-2.1-6-.7-1.8-1.3-3.2-1.8-4.2h7.6s.2.4.5,1.1c.3.7.7,1.6,1.2,2.8.5,1.2.9,2.6,1.5,4.2.5,1.6,1.1,3.5,1.6,5.5,1.5,5.7,2.1,10.7,1.9,15.2-.2,4.4-1.2,8.2-2.9,11.4-1.5,2.8-3.7,5.1-6.4,6.8s-6,2.7-9.8,3.2c-3.3.4-6.3.2-9.1-.4-2.8-.7-5.5-1.8-7.8-3.5-1.5,1-3.2,1.8-5.1,2.5s-4,1.2-6.3,1.5c-.7,0-1.3,0-2,.1s-1.3,0-2,0h0ZM76.6,56.2c-.5,0-.9.4-1.2,1-.3.6-.6,1-.7,1.3-.7,1.5-1.2,3.4-1.4,5.7-.2,2.3-.2,4.7,0,7.3.3,2.9.9,5.6,1.8,8.2.9,2.6,2.1,4.9,3.5,6.9,0,0,.2.2.2.2s0,.2.2.2c1.1-1.5,1.9-3.2,2.4-4.9s.8-3.5,1-5.1c.2-2.3.2-4.7-.1-7.2s-.9-4.9-1.7-7.2c-.7-2.1-1.5-3.6-2.2-4.6s-1.3-1.6-1.7-1.7h0Z"/>
</svg>