<?xml version="1.0" encoding="utf-8"?>
<!-- Generator: Adobe Illustrator 24.0.2, SVG Export Plug-In . SVG Version: 6.00 Build 0)  -->
<svg version="1.1" id="Calque_1" xmlns="http://www.w3.org/2000/svg" xmlns:xlink="http://www.w3.org/1999/xlink" x="0px" y="0px"
	 viewBox="0 0 432 104" style="enable-background:new 0 0 432 104;" xml:space="preserve">
<style type="text/css">
	.st0{fill:#1D1D1B;}
</style>
<g>
	<path class="st0" d="M75.7,6.2L58.28,104L47.42,42.52L36.55,104L19.28,6.2h6.7l13.25,76.06l7.59-43.46L41.17,6.2h6.54l2.39,13.99
		L52.63,6.2h1.34l-3.13,17.72l10.12,58.35L74.36,6.2H75.7z"/>
	<path class="st0" d="M141.34,81.37c-2.68,5.26-6.55,9.5-11.61,12.73c-5.06,3.22-10.67,4.84-16.82,4.84
		c-8.73,0-16.23-3.13-22.48-9.38c-6.25-6.25-9.38-13.75-9.38-22.48c0-8.83,3.13-16.35,9.38-22.55c6.25-6.2,13.75-9.3,22.48-9.3
		c6.05,0,11.59,1.54,16.6,4.61c5.01,3.08,8.86,7.2,11.54,12.35L88.2,73.78c1.29,6.85,4.24,12.53,8.85,17.04
		c4.62,4.52,9.9,6.77,15.86,6.77c5.16,0,9.8-1.66,13.92-4.98c4.12-3.33,7.22-7.72,9.3-13.17L141.34,81.37z M135.39,52.79
		c-2.08-4.96-5.13-8.9-9.15-11.83c-4.02-2.92-8.46-4.39-13.32-4.39c-6.95,0-12.9,2.97-17.86,8.93c-4.96,5.95-7.44,13.15-7.44,21.58
		c0,1.19,0.1,2.98,0.3,5.36L135.39,52.79z"/>
	<path class="st0" d="M212.84,96.86h-6.4V86.44c-6.37,8.33-14.83,12.5-25.37,12.5c-8.76,0-16.27-3.13-22.54-9.38
		c-6.27-6.25-9.4-13.75-9.4-22.48c0-8.83,3.13-16.35,9.38-22.55c6.25-6.2,13.74-9.3,22.47-9.3c8.83,0,16.35,3.1,22.55,9.3
		c6.2,6.21,9.3,13.72,9.3,22.55V96.86z M206.44,67.08c0-8.43-2.48-15.63-7.44-21.58c-4.96-5.96-10.97-8.93-18.02-8.93
		c-6.95,0-12.9,2.97-17.86,8.93c-4.96,5.95-7.45,13.15-7.45,21.58c0,8.44,2.48,15.63,7.45,21.58c4.96,5.96,10.91,8.93,17.86,8.93
		c7.05,0,13.05-2.97,18.02-8.93C203.96,82.71,206.44,75.52,206.44,67.08z"/>
	<path class="st0" d="M241.22,39.69c0,2.58-1.34,3.87-4.02,3.87c-2.68,0-4.02-1.29-4.02-3.87c0-0.79,0.3-1.58,0.89-2.38
		c-1.98,0.8-3.22,2.43-3.72,4.91v54.63h-6.4V37.31h6.4v1.49c1.49-2.08,3.77-3.13,6.85-3.13C239.88,35.68,241.22,37.02,241.22,39.69z
		"/>
	<path class="st0" d="M268.62,97.8L286.03,0l10.86,61.48L307.77,0l17.26,97.8h-6.69l-13.25-76.07l-7.59,43.46l5.66,32.6h-6.55
		l-2.39-13.99l-2.52,13.99h-1.34l3.13-17.72l-10.13-58.35L269.96,97.8H268.62z"/>
	<g>
		<path class="st0" d="M409.3,9.13c2.27,0,3.42-1.09,3.42-3.27c0-2.18-1.14-3.27-3.42-3.27c-1.99,0-2.99,1.09-2.99,3.27
			C406.31,8.04,407.31,9.13,409.3,9.13z"/>
		<g>
			<path class="st0" d="M412.72,97.8h-6.4V24.61h6.4V97.8z"/>
		</g>
	</g>
	<g>
		<path class="st0" d="M339.21,44.37c0.88-1.12,1.93-2.32,3.16-3.55c0.62-0.61,1.31-1.19,1.99-1.82c0.72-0.59,1.5-1.16,2.27-1.76
			c0.83-0.53,1.67-1.08,2.55-1.61c0.92-0.45,1.83-0.97,2.81-1.39c1-0.35,1.98-0.81,3.02-1.09c1.06-0.24,2.11-0.61,3.18-0.74
			c1.09-0.11,2.09-0.34,3.24-0.37l1.75-0.02l0.88-0.01l0.44,0l0.11,0l0.06,0h0.03c-0.03,0-0.09,0-0.07,0l0.21,0.02
			c1.1,0.12,2.2,0.24,3.3,0.36c1.07,0.24,2.13,0.48,3.18,0.73c1.02,0.34,2.02,0.72,3.01,1.06c0.94,0.46,1.87,0.91,2.79,1.35
			c0.86,0.55,1.72,1.06,2.53,1.6c0.77,0.61,1.55,1.15,2.26,1.76c0.68,0.64,1.38,1.21,1.99,1.85c0.59,0.65,1.21,1.23,1.72,1.87
			c2.12,2.48,3.55,4.81,4.45,6.45c0.44,0.82,0.76,1.49,0.95,1.91c0.18,0.43,0.28,0.65,0.28,0.65l6.21-2.86c0,0-0.16-0.3-0.46-0.86
			c-0.31-0.55-0.77-1.31-1.39-2.24c-1.24-1.85-3.14-4.38-5.85-7.02c-0.66-0.67-1.44-1.3-2.19-1.98c-0.77-0.67-1.65-1.27-2.5-1.93
			c-0.89-0.63-1.86-1.19-2.81-1.8c-1-0.55-2.06-1.05-3.11-1.58c-1.11-0.43-2.23-0.86-3.37-1.27c-1.18-0.3-2.36-0.63-3.56-0.9
			c-1.22-0.16-2.45-0.33-3.68-0.49c-1.23-0.02-2.47-0.04-3.71-0.06l-0.23,0l-0.13,0l-0.03,0l-0.06,0.01l-0.11,0.01l-0.44,0.05
			l-0.88,0.09l-1.75,0.18c-1.17,0.14-2.44,0.5-3.63,0.75c-1.2,0.27-2.29,0.77-3.41,1.13c-1.1,0.41-2.13,1-3.16,1.47
			c-1,0.54-1.92,1.18-2.85,1.75c-0.88,0.65-1.71,1.31-2.53,1.94c-0.76,0.7-1.51,1.37-2.19,2.05c-0.65,0.72-1.31,1.38-1.88,2.06
			c-1.14,1.38-2.1,2.7-2.89,3.91c-0.78,1.21-1.4,2.3-1.87,3.22c-0.95,1.83-1.34,2.94-1.34,2.94s0.49-1.07,1.59-2.79
			C337.63,46.51,338.34,45.49,339.21,44.37z"/>
		<path class="st0" d="M388.18,62.85c-0.68-0.07-0.98-0.16-1.59-0.52c-0.66-0.38-1.23-0.83-1.81-1.31c-0.78-0.66-1.6-1.29-2.36-1.98
			c-0.96-0.87-1.92-1.37-3.06-1.89c-1.07-0.48-2.13-1.41-3.01-2.17c-0.74-0.65-1.64-1.56-2.09-2.44c-0.5-0.98-1.59-1.44-2.52-1.86
			c-0.42-0.19-0.92-0.62-1.28-0.91c-0.48-0.38-0.52-0.43-0.8-0.72c-0.08-0.1-0.15-0.19-0.21-0.27c-0.18-0.38-0.32-0.83-0.19-1.24
			c0,0,1.64,0.11,1.8-0.69c0,0,0.73-2.17-0.85-5.42c0,0-0.55-1.01-1.69-1.12c-0.38-0.06-0.82-0.09-1.36-0.07
			c0,0-2.96,0.01-3.07,1.48l0.06,0.59c0,0-0.14,0.7-0.09,1.22c0,0,0.13,0.36-0.41,1.12c0,0-0.42,0.48-0.02,0.68
			c0,0,0.45,0.13,0.24,0.54c0,0-0.07,0.08,0.03,0.24c0.01,0.01,0.02,0.01,0.02,0.02l0.07,0.12l-0.07,0.12c0,0-0.06,0.15,0.03,0.23
			c0.18,0.16,0.08,0.41,0.08,0.41c0,0.22,0.09,0.62,0.62,0.55c0.12-0.02,0.26-0.04,0.39-0.06c0.12-0.01,0.25-0.03,0.4-0.04
			c0.22-0.02,0.64-0.09,0.65,0.2c0.01,0.07,0.01,0.16,0.02,0.25c0,0.23,0,0.49-0.05,0.67c-0.02,0.05-0.03,0.11-0.06,0.15
			c-0.05,0.08-0.11,0.14-0.16,0.2c-0.01,0.01-0.01,0.01-0.02,0.02c0,0,0,0,0,0c-0.75,0.84-2.44,0.67-3.34,0.96
			c-0.6,0.19-0.81,0.83-1.13,1.31c-0.45,0.66-1.02,1.04-1.59,1.56c-1.09,0.99-2.23,1.6-3.48,2.34c-1.04,0.61-1.88,1.54-2.76,2.35
			c-0.65,0.6-1.36,1.13-2.05,1.67c-0.78,0.61-1.52,1.12-2.35,1.64c-0.31,0.2-0.63,0.4-0.92,0.64c-0.16,0.13-0.31,0.41-0.49,0.5
			c-0.49,0.24-1.33,0.2-1.89,0.32c-1.15,0.23-2.17,0.39-3.35,0.43c-1.05,0.04-2.1-0.03-3.15,0c-1.08,0.04-2.09,0.35-3.16,0.42
			c-0.76,0.05-2.74,0.33-2.92,1.28c-0.07,0.38-0.04,1.21,0.36,1.38c0.64,0.26,1.37,0.2,2.03,0.14c0.5-0.05,1.3-0.02,1.73-0.3
			c0.64-0.42,1.29-0.66,2.03-0.84c2.14-0.51,4.53-0.04,6.71-0.03c1.03,0.01,2.04,0.13,3.07,0.15c1.23,0.03,2.38-0.2,3.54-0.45h3.3
			c1.29,0.53,2.43,1.61,3.7,2.24c0.55,0.27,1.12,0.55,1.68,0.8c0.15,0.07,0.99,0.32,0.99,0.44c0.02,0.25,0.03,0.51,0.05,0.76
			c0.09,1.15,0.18,2.29,0.49,3.41c0.19,0.69,0.39,1.38,0.64,2.06c0.2,0.57,0.54,1.08,0.72,1.66c0.33,1.09,0.58,2.2,0.95,3.27
			c0.31,0.88,0.09,1.93-0.03,2.84c-0.13,1.01-0.28,2.02-0.39,3.03c-0.12,1.05-0.25,2.08-0.5,3.1c-0.25,0.99-0.83,2.01-0.89,3.03
			c-0.08,1.34,0.4,2.78,0.63,4.09c0.01,0.03,0.01,0.07,0.01,0.1c-0.22-0.02-0.43-0.05-0.65-0.07c-1.09-0.24-2.18-0.48-3.26-0.72
			c-1.05-0.32-2.07-0.71-3.09-1.05c-0.98-0.43-1.93-0.91-2.87-1.34c-0.89-0.54-1.76-1.07-2.61-1.58c-0.8-0.61-1.59-1.16-2.34-1.75
			c-0.71-0.64-1.42-1.22-2.06-1.85c-0.62-0.65-1.24-1.24-1.79-1.87c-1.1-1.25-2.03-2.45-2.79-3.56c-0.76-1.11-1.37-2.11-1.84-2.94
			c-0.46-0.83-0.8-1.5-1-1.93c-0.19-0.43-0.29-0.66-0.29-0.66l-6.18,2.93c0,0,0.17,0.3,0.48,0.87c0.33,0.56,0.8,1.32,1.44,2.26
			c0.65,0.93,1.46,2.04,2.46,3.24c1,1.2,2.21,2.5,3.6,3.82c0.69,0.67,1.48,1.29,2.26,1.98c0.81,0.65,1.69,1.27,2.58,1.92
			c0.92,0.61,1.9,1.18,2.89,1.79c1.04,0.51,2.1,1.03,3.18,1.56c1.13,0.41,2.27,0.86,3.44,1.25c1.2,0.29,2.4,0.63,3.62,0.88
			c1.24,0.17,2.49,0.34,3.74,0.48c1.25,0.02,2.51,0.04,3.77,0.06l0.24,0l0.15-0.01l0.06-0.01l0.11-0.01l0.45-0.05l0.89-0.09
			l1.78-0.18c1.19-0.13,2.48-0.49,3.69-0.73c1.23-0.26,2.34-0.76,3.48-1.12c1.13-0.39,2.17-0.98,3.23-1.46
			c1.04-0.52,1.98-1.17,2.93-1.73c0.92-0.62,1.76-1.3,2.61-1.93c0.78-0.7,1.54-1.38,2.27-2.04c0.68-0.72,1.34-1.39,1.95-2.07
			c0.57-0.71,1.14-1.36,1.64-2.02c0.48-0.67,0.96-1.29,1.36-1.9c0.81-1.22,1.46-2.33,1.96-3.25c0.99-1.85,1.4-2.98,1.4-2.98
			s-0.51,1.08-1.65,2.83c-0.57,0.87-1.31,1.9-2.21,3.03c-0.45,0.57-0.97,1.13-1.49,1.74c-0.54,0.6-1.16,1.19-1.77,1.82
			c-0.64,0.6-1.35,1.2-2.06,1.83c-0.76,0.57-1.54,1.15-2.34,1.75c-0.86,0.52-1.71,1.09-2.63,1.6c-0.95,0.44-1.88,0.98-2.88,1.37
			c-1.03,0.35-2.02,0.81-3.1,1.07c-1.08,0.23-2.15,0.61-3.25,0.73c-1.11,0.11-2.13,0.34-3.31,0.36l-1.79,0.02l-0.9,0.01l-0.45,0.01
			l-0.11,0l-0.05,0h-0.02c0.03,0,0.15-0.01,0.07,0l-0.21-0.02c-0.39-0.04-0.79-0.08-1.18-0.12c0.03-0.08,0.06-0.17,0.08-0.28
			c0.25-1.23-0.65-3.07,0.8-3.73c0.36-0.17,0.96-0.42,0.63-0.97c-0.13-0.21-0.41-0.36-0.57-0.58c-0.25-0.37-0.25-0.67-0.25-1.1
			c0-0.99,0.73-2.37,1.08-3.26c0.66-1.71,1.49-3.33,1.25-5.22c-0.14-1.12-0.44-2.24-0.66-3.35c-0.24-1.19,0.02-2.36-0.01-3.55
			c-0.03-1.28-0.26-2.54-0.25-3.82c0-0.35-0.1-0.83,0.25-1.01c0.57-0.27,1.1-0.67,1.46-1.2c0.55-0.81,0.49-1.94,0.34-2.93h19.77
			c0.19,0.05,0.39,0.09,0.6,0.09c0.21,0,0.41-0.03,0.51-0.09h6.51v-1.37h-7.87C388.9,62.96,388.54,62.89,388.18,62.85z
			 M369.97,56.64c0.29-0.51,0.69-1.06,1.14-1.44c0.72-0.61,0.99-0.42,1.61,0.13c0.84,0.74,1.63,1.33,2.62,1.85
			c0.82,0.44,1.63,0.84,2.39,1.37c0.78,0.54,1.26,1.27,2.13,1.72c0.83,0.44,1.65,0.85,2.46,1.32c0.76,0.43,1.58,0.98,2.4,1.44
			h-15.24c-0.2-1.05-0.4-2.1-0.57-3.16C368.75,58.79,369.46,57.56,369.97,56.64z M351.15,61.34c0.31-0.65,1.45-1.01,2.04-1.35
			c0.91-0.53,1.79-1.09,2.69-1.64c1.08-0.66,2.08-1.21,2.96-2.13c0.84-0.87,2.07-1.86,3.3-2.09c0.03,1.49,0.39,2.86,0.61,4.32
			c0.11,0.69,0.32,1.34,0.55,2c0.24,0.69,0.69,1.5,0.45,2.24c-0.87-0.66-2.42-0.8-3.46-1.04c-0.81-0.18-1.65-0.2-2.45-0.38
			c-1.05-0.23-2.05-0.67-3.13-0.42c-0.68,0.16-1.31,0.44-2,0.58C352.56,61.47,350.92,61.81,351.15,61.34z"/>
	</g>
</g>
</svg>
